<?xml version="1.0" encoding="UTF-8" standalone="no"?>
<!-- Created with Inkscape (http://www.inkscape.org/) -->

<svg
   xmlns:dc="http://purl.org/dc/elements/1.1/"
   xmlns:cc="http://creativecommons.org/ns#"
   xmlns:rdf="http://www.w3.org/1999/02/22-rdf-syntax-ns#"
   xmlns:svg="http://www.w3.org/2000/svg"
   xmlns="http://www.w3.org/2000/svg"
   xmlns:xlink="http://www.w3.org/1999/xlink"
   xmlns:sodipodi="http://sodipodi.sourceforge.net/DTD/sodipodi-0.dtd"
   xmlns:inkscape="http://www.inkscape.org/namespaces/inkscape"
   width="1024"
   height="1024"
   id="svg2"
   version="1.1"
   inkscape:version="0.48.3.1 r9886"
   sodipodi:docname="TShirt.pdf">
  <defs
     id="defs4">
    <clipPath
       id="clipoutline1"
       clipPathUnits="userSpaceOnUse">
      <path
         inkscape:connector-curvature="0"
         d="M 22.42,17.200001 35.380001,30.15 l -2.5,8.780001 -8.780001,2.5 L 11.14,28.47 5.28,34.330003 20.17,55.790002 37.729999,52.450002 99.36,118.07 c 9.44,9.51 22.17,-4.75 13.34,-12.87 L 46.849998,42.919999 50.86,25.160001 l -22.140001,-14.27 -6.299999,6.31 z M 103.48,109.17 c 1.68,-1.68 4.4,-1.68 6.08,0 1.68,1.68 1.68,4.4 0,6.08 -1.68,1.67 -4.4,1.67 -6.08,0 -1.68,-1.68 -1.68,-4.4 0,-6.08 z"
         id="outline1" />
    </clipPath>
    <clipPath
       id="clipoutline2"
       clipPathUnits="userSpaceOnUse">
      <path
         inkscape:connector-curvature="0"
         d="m 55.799999,12 0.760002,0.16 c 8.84,-2.94 28.679996,8.639999 24.259998,18.960001 -1.120003,1.620001 -0.93,4.499998 0.419998,6.309999 L 56.429999,62.25 c -1.389999,-1.389999 -4.48,-1.360001 -5.900002,0 L 9.499998,101.63 c -3.74,3.59 -0.8,6.64 0.78,8.25 l 7.36,7.36 c 1.610001,1.6 5.860001,3.76 8.880001,0.56 L 65.239996,76.989998 c 1.349998,-1.419998 1.360001,-4.470001 0,-5.869995 0,0 0.01,-0.02 0,-0.02 L 90.15,46.200001 c 2.629997,2.369999 5.113815,2.574848 7.470001,1.93 4.550569,-1.24543 7.087249,3.206638 9.809999,6.459999 l -1.23,1.209999 c -1.82,1.84 -1.65,4.940002 0.39,6.98 2.04,2.040001 5.15,2.209999 6.97,0.389999 l 8.14,-8.129997 c 1.82,-1.84 1.65,-4.940002 -0.4,-6.970001 -1.84,-1.849998 -4.51,-2.09 -6.37,-0.77 -5.58,-6.259998 -2.65,-7.200001 -10.01,-15.349998 l -13.790005,-14.09 c -9.93,-9.740001 -22.829994,-9.73 -35.329998,-5.860001 z"
         id="outline2" />
    </clipPath>
    <clipPath
       id="clipoutline1-2"
       clipPathUnits="userSpaceOnUse">
      <path
         inkscape:connector-curvature="0"
         d="M 22.42,17.200001 35.380001,30.15 l -2.5,8.780001 -8.780001,2.5 L 11.14,28.47 5.28,34.330003 20.17,55.790002 37.729999,52.450002 99.36,118.07 c 9.44,9.51 22.17,-4.75 13.34,-12.87 L 46.849998,42.919999 50.86,25.160001 l -22.140001,-14.27 -6.299999,6.31 z M 103.48,109.17 c 1.68,-1.68 4.4,-1.68 6.08,0 1.68,1.68 1.68,4.4 0,6.08 -1.68,1.67 -4.4,1.67 -6.08,0 -1.68,-1.68 -1.68,-4.4 0,-6.08 z"
         id="outline1-0" />
    </clipPath>
    <clipPath
       id="clipoutline2-6"
       clipPathUnits="userSpaceOnUse">
      <path
         inkscape:connector-curvature="0"
         d="m 55.799999,12 0.760002,0.16 c 8.84,-2.94 28.679996,8.639999 24.259998,18.960001 -1.120003,1.620001 -0.93,4.499998 0.419998,6.309999 L 56.429999,62.25 c -1.389999,-1.389999 -4.48,-1.360001 -5.900002,0 L 9.499998,101.63 c -3.74,3.59 -0.8,6.64 0.78,8.25 l 7.36,7.36 c 1.610001,1.6 5.860001,3.76 8.880001,0.56 L 65.239996,76.989998 c 1.349998,-1.419998 1.360001,-4.470001 0,-5.869995 0,0 0.01,-0.02 0,-0.02 L 90.15,46.200001 c 2.629997,2.369999 5.113815,2.574848 7.470001,1.93 4.550569,-1.24543 7.087249,3.206638 9.809999,6.459999 l -1.23,1.209999 c -1.82,1.84 -1.65,4.940002 0.39,6.98 2.04,2.040001 5.15,2.209999 6.97,0.389999 l 8.14,-8.129997 c 1.82,-1.84 1.65,-4.940002 -0.4,-6.970001 -1.84,-1.849998 -4.51,-2.09 -6.37,-0.77 -5.58,-6.259998 -2.65,-7.200001 -10.01,-15.349998 l -13.790005,-14.09 c -9.93,-9.740001 -22.829994,-9.73 -35.329998,-5.860001 z"
         id="outline2-9" />
    </clipPath>
    <clipPath
       id="clipoutline1-6"
       clipPathUnits="userSpaceOnUse">
      <path
         inkscape:connector-curvature="0"
         d="M 22.42,17.200001 35.380001,30.15 l -2.5,8.780001 -8.780001,2.5 L 11.14,28.47 5.28,34.330003 20.17,55.790002 37.729999,52.450002 99.36,118.07 c 9.44,9.51 22.17,-4.75 13.34,-12.87 L 46.849998,42.919999 50.86,25.160001 l -22.140001,-14.27 -6.299999,6.31 z M 103.48,109.17 c 1.68,-1.68 4.4,-1.68 6.08,0 1.68,1.68 1.68,4.4 0,6.08 -1.68,1.67 -4.4,1.67 -6.08,0 -1.68,-1.68 -1.68,-4.4 0,-6.08 z"
         id="outline1-02" />
    </clipPath>
    <clipPath
       id="clipoutline2-8"
       clipPathUnits="userSpaceOnUse">
      <path
         inkscape:connector-curvature="0"
         d="m 55.799999,12 0.760002,0.16 c 8.84,-2.94 28.679996,8.639999 24.259998,18.960001 -1.120003,1.620001 -0.93,4.499998 0.419998,6.309999 L 56.429999,62.25 c -1.389999,-1.389999 -4.48,-1.360001 -5.900002,0 L 9.499998,101.63 c -3.74,3.59 -0.8,6.64 0.78,8.25 l 7.36,7.36 c 1.610001,1.6 5.860001,3.76 8.880001,0.56 L 65.239996,76.989998 c 1.349998,-1.419998 1.360001,-4.470001 0,-5.869995 0,0 0.01,-0.02 0,-0.02 L 90.15,46.200001 c 2.629997,2.369999 5.113815,2.574848 7.470001,1.93 4.550569,-1.24543 7.087249,3.206638 9.809999,6.459999 l -1.23,1.209999 c -1.82,1.84 -1.65,4.940002 0.39,6.98 2.04,2.040001 5.15,2.209999 6.97,0.389999 l 8.14,-8.129997 c 1.82,-1.84 1.65,-4.940002 -0.4,-6.970001 -1.84,-1.849998 -4.51,-2.09 -6.37,-0.77 -5.58,-6.259998 -2.65,-7.200001 -10.01,-15.349998 l -13.790005,-14.09 c -9.93,-9.740001 -22.829994,-9.73 -35.329998,-5.860001 z"
         id="outline2-2" />
    </clipPath>
  </defs>
  <sodipodi:namedview
     id="base"
     pagecolor="#ffffff"
     bordercolor="#666666"
     borderopacity="1.0"
     inkscape:pageopacity="0.0"
     inkscape:pageshadow="2"
     inkscape:zoom="0.49497475"
     inkscape:cx="522.25731"
     inkscape:cy="518.6277"
     inkscape:document-units="px"
     inkscape:current-layer="layer1"
     showgrid="false"
     inkscape:window-width="1366"
     inkscape:window-height="715"
     inkscape:window-x="0"
     inkscape:window-y="0"
     inkscape:window-maximized="1" />
  <metadata
     id="metadata7">
    <rdf:RDF>
      <cc:Work
         rdf:about="">
        <dc:format>image/svg+xml</dc:format>
        <dc:type
           rdf:resource="http://purl.org/dc/dcmitype/StillImage" />
        <dc:title></dc:title>
      </cc:Work>
    </rdf:RDF>
  </metadata>
  <g
     inkscape:label="Layer 1"
     inkscape:groupmode="layer"
     id="layer1"
     transform="translate(0,-28.362183)">
    <path
       transform="translate(667.71428,12.076465)"
       sodipodi:type="arc"
       style="fill:none;fill-opacity:1;stroke:#00aa00;stroke-width:10;stroke-miterlimit:4;stroke-opacity:1;stroke-dasharray:none"
       id="path3161-3-2"
       sodipodi:cx="172.85715"
       sodipodi:cy="334"
       sodipodi:rx="155.71428"
       sodipodi:ry="155.71428"
       d="m 328.57143,334 a 155.71428,155.71428 0 1 1 -311.428562,0 155.71428,155.71428 0 1 1 311.428562,0 z" />
    <text
       xml:space="preserve"
       style="font-size:70px;font-style:normal;font-variant:normal;font-weight:300;font-stretch:normal;text-align:center;line-height:125%;letter-spacing:0px;word-spacing:0px;writing-mode:lr;text-anchor:middle;fill:#000000;fill-opacity:1;stroke:none;font-family:Roboto;-inkscape-font-specification:Roboto Light"
       x="515.1275"
       y="641.60791"
       id="text3292"
       sodipodi:linespacing="125%"><tspan
         sodipodi:role="line"
         id="tspan3294"
         x="515.1275"
         y="641.60791"
         style="font-size:70px;font-style:normal;font-variant:normal;font-weight:300;font-stretch:normal;text-align:center;line-height:125%;writing-mode:lr;text-anchor:middle;font-family:Roboto;-inkscape-font-specification:Roboto Light">Archbishop Mitty High School</tspan><tspan
         sodipodi:role="line"
         x="515.1275"
         y="729.10791"
         id="tspan3296"
         style="font-size:70px;font-style:normal;font-variant:normal;font-weight:300;font-stretch:normal;text-align:center;line-height:125%;writing-mode:lr;text-anchor:middle;font-family:Roboto;-inkscape-font-specification:Roboto Light">Computer Science Team</tspan></text>
    <text
       xml:space="preserve"
       style="font-size:40px;font-style:normal;font-weight:normal;line-height:125%;letter-spacing:0px;word-spacing:0px;fill:#000000;fill-opacity:1;stroke:none;font-family:Sans"
       x="1088.5714"
       y="718.28571"
       id="text3298"
       sodipodi:linespacing="125%"
       transform="translate(0,28.362183)"><tspan
         sodipodi:role="line"
         id="tspan3300" /></text>
    <path
       transform="translate(339.14313,12.076466)"
       sodipodi:type="arc"
       style="fill:none;stroke:#ffaa11;stroke-width:10;stroke-miterlimit:4;stroke-opacity:1;stroke-dasharray:none"
       id="path3161-3"
       sodipodi:cx="172.85715"
       sodipodi:cy="334"
       sodipodi:rx="155.71428"
       sodipodi:ry="155.71428"
       d="m 328.57143,334 a 155.71428,155.71428 0 1 1 -311.428562,0 155.71428,155.71428 0 1 1 311.428562,0 z" />
    <path
       sodipodi:type="arc"
       style="fill:none;stroke:#dc143c;stroke-width:10;stroke-miterlimit:4;stroke-opacity:1;stroke-dasharray:none"
       id="path3161"
       sodipodi:cx="172.85715"
       sodipodi:cy="334"
       sodipodi:rx="155.71428"
       sodipodi:ry="155.71428"
       d="m 328.57143,334 a 155.71428,155.71428 0 1 1 -311.428562,0 155.71428,155.71428 0 1 1 311.428562,0 z"
       transform="translate(7.8130953,12.076904)" />
    <text
       xml:space="preserve"
       style="font-size:204.76411438px;font-style:normal;font-variant:normal;font-weight:300;font-stretch:normal;text-align:start;line-height:100%;letter-spacing:0px;word-spacing:0px;writing-mode:lr-tb;text-anchor:start;fill:#000000;fill-opacity:1;stroke:none;font-family:Open Sans;-inkscape-font-specification:Open Sans Light"
       x="516.13403"
       y="414.33963"
       id="text3169"
       sodipodi:linespacing="100%"><tspan
         sodipodi:role="line"
         id="tspan3171"
         x="516.13403"
         y="414.33963"
         style="font-size:228.80999756px;font-style:normal;font-variant:normal;font-weight:200;font-stretch:normal;text-align:center;line-height:100%;writing-mode:lr-tb;text-anchor:middle;fill:#000000;fill-opacity:1;font-family:DejaVu Sans;-inkscape-font-specification:DejaVu Sans Ultra-Light">{}</tspan></text>
    <path
       sodipodi:type="arc"
       id="path4968"
       style="fill:#000000;stroke:none"
       sodipodi:cx="121.42857"
       sodipodi:cy="66.647896"
       sodipodi:rx="1.5"
       sodipodi:ry="1.5"
       d="m 122.92857,66.647896 a 1.5,1.5 0 1 1 -3,0 1.5,1.5 0 1 1 3,0 z" />
    <path
       inkscape:connector-curvature="0"
       style="fill:#000000;fill-opacity:1;fill-rule:evenodd;stroke:none"
       sodipodi:nodetypes="ccccccccccccccccccccccccccccccccccccccccccc"
       id="path1372"
       d="m 185.4473,245.54735 c -7.99416,0.29429 -16.96119,2.97336 -21.74483,8.71106 -6.95793,14.82539 9.94458,7.98021 11.93252,18.24394 1.98799,10.26373 -9.94374,10.83131 -9.94374,10.83131 l 0,0 -51.41175,0 0,52.15137 c -0.14316,1.64601 -1.33323,11.15941 -10.74913,9.33563 -10.26372,-1.98797 -3.41858,-18.87403 -18.243936,-11.91608 -4.842428,4.03717 -7.507845,11.03412 -8.398806,17.93165 -0.0137,0.10774 -0.03627,0.22107 -0.04942,0.32873 -0.508443,2.4257 -0.766056,5.20115 -0.657445,8.15224 0.294321,7.99418 2.973362,16.96121 8.711065,21.7448 14.825402,6.95795 7.980262,-9.94453 18.243922,-11.93251 10.26374,-1.98799 10.83134,9.94377 10.83134,9.94377 l 0.31226,51.3953 c 0,0 51.59257,-0.41091 51.59257,-0.4109 0,0 11.93174,-0.56759 9.94374,-10.83131 -1.98793,-10.26373 -18.87402,-3.41857 -11.91606,-18.24394 4.78359,-5.73771 13.73422,-8.41678 21.72837,-8.71107 2.95106,-0.10859 5.72656,0.149 8.15225,0.65744 0.10774,0.013 0.22101,0.0354 0.32871,0.0493 6.89754,0.89091 13.91094,3.55638 17.9481,8.39879 6.95796,14.82538 -9.94453,7.9802 -11.93252,18.24394 -1.98799,10.26372 9.94373,10.8313 9.94373,10.83131 l 51.1159,0.0165 c 0,0 -0.32871,-51.67472 -0.32871,-51.67472 0,0 -0.56756,-11.93176 -10.83129,-9.94378 -10.26373,1.988 -3.41858,18.89048 -18.24393,11.93253 -5.73771,-4.78358 -8.41681,-13.75064 -8.71107,-21.74479 -0.10871,-2.95109 0.149,-5.72654 0.65743,-8.15226 0.0131,-0.10774 0.0353,-0.221 0.0494,-0.32871 0.89091,-6.89754 3.55639,-13.8945 8.39877,-17.93166 2.77975,-1.30461 4.79978,-1.77724 6.31141,-1.66003 6.55062,0.50792 3.59325,11.96089 11.93252,13.57612 9.57647,1.85487 10.65646,-8.06795 10.7656,-9.45069 l 0,-51.75691 -53.72925,0 c -3.36899,-0.77942 -8.92234,-3.15143 -7.51122,-10.43685 1.988,-10.26372 18.87403,-3.41855 11.91606,-18.24392 -4.03715,-4.84241 -11.03409,-7.50787 -17.93163,-8.3988 -0.10774,-0.014 -0.22105,-0.0363 -0.32871,-0.0493 -2.42575,-0.50843 -5.20119,-0.76606 -8.15225,-0.65744 z" />
    <g
       id="g4624"
       transform="matrix(0.75289424,0,0,0.75289424,685.41588,175.61716)"
       style="fill:#000000;fill-opacity:1">
      <use
         transform="matrix(2.47756,0,0,2.27194,-88.94793,-126.66233)"
         x="55"
         y="90"
         class="outline-big"
         xlink:href="#outline1-02"
         id="use3921"
         style="fill:#000000;fill-opacity:1"
         width="640"
         height="480" />
      <use
         transform="matrix(2.47756,0,0,2.27194,-88.94793,-126.66233)"
         x="55"
         y="90"
         class="outline-small"
         xlink:href="#outline1-02"
         id="use3923"
         style="fill:#000000;fill-opacity:1"
         width="640"
         height="480" />
      <use
         transform="matrix(2.47756,0,0,2.27194,-88.94793,-126.66233)"
         x="55"
         y="90"
         class="aluminium4"
         xlink:href="#outline1-02"
         id="use3925"
         style="fill:#000000;fill-opacity:1"
         width="640"
         height="480" />
      <use
         transform="matrix(2.47756,0,0,2.27194,-88.94793,-126.66233)"
         x="55"
         y="90"
         clip-path="url(#clipoutline1-6)"
         xlink:href="#outline1-02"
         class="stroke-highlight"
         id="use3927"
         style="fill:#000000;fill-opacity:1"
         width="640"
         height="480" />
      <path
         d="m 107.59689,112.8001 33.32317,30.39852 -8.25027,26.55898 -27.12928,7.42924 -33.615697,-31.21644 -11.723656,10.3146 35.181351,45.30243 46.825902,-9.40582 154.8475,150.76584 c 18.5817,18.85708 50.04669,-6.06607 27.60001,-26.35446 l -165.74877,-143.35933 9.56339,-39.00917 -49.45211,-31.8753 -11.42154,10.45091 z m 198.13047,211.97184 c 4.13751,-3.79413 11.47106,-4.54388 15.60864,-0.68158 4.21185,3.79416 7.58133,10.51907 1.61041,17.81198 -4.95514,4.54389 -12.88333,4.36215 -17.83844,-0.54526 -4.16232,-3.81683 -3.59247,-12.72287 0.61939,-16.58514 z"
         class="high-specularity"
         id="path3929"
         inkscape:connector-curvature="0"
         style="fill:#000000;fill-opacity:1" />
      <path
         d="m 107.27479,112.84553 58.14834,53.73136 7.97775,-31.5118 -54.75408,-32.7159 -11.37201,10.49635 z"
         class="specularity"
         id="path3931"
         inkscape:connector-curvature="0"
         style="fill:#000000;fill-opacity:1" />
      <path
         style="fill:#000000;fill-opacity:1"
         inkscape:connector-curvature="0"
         id="path3933"
         class="low-shade"
         d="m 222.57796,226.66962 11.47357,9.72393 c 0.94148,9.81476 -1.80861,12.76828 -19.39928,26.44535 l -21.30702,-20.94727 29.21045,-15.22201 0,0 0.0223,0 z" />
      <use
         transform="matrix(2.47756,0,0,2.27194,-88.94793,-126.66233)"
         x="55"
         y="90"
         class="outline-big"
         xlink:href="#outline2-2"
         id="use3936"
         style="fill:#000000;fill-opacity:1"
         width="640"
         height="480" />
      <use
         transform="matrix(2.47756,0,0,2.27194,-88.94793,-126.66233)"
         x="55"
         y="90"
         class="outline-small stroke-aluminium5"
         xlink:href="#outline2-2"
         id="use3938"
         style="fill:#000000;fill-opacity:1"
         width="640"
         height="480" />
      <path
         d="m 252.75711,159.03404 -72.96413,66.90859 21.87687,20.06121 72.96412,-66.88587 -21.87686,-20.08393 z"
         class="aluminium2"
         id="path3940"
         inkscape:connector-curvature="0"
         style="fill:#000000;fill-opacity:1" />
      <path
         d="m 267.64725,172.68838 -72.96415,66.88587 6.98674,6.42959 72.96413,-66.88587 -6.98672,-6.42959 z"
         class="specularity"
         id="path3942"
         inkscape:connector-curvature="0"
         style="fill:#000000;fill-opacity:1" />
      <path
         d="m 261.52765,161.96484 -72.66679,66.63594 9.38993,8.61068 70.80869,-68.33992 -7.53183,-6.9067 z"
         id="path3944"
         inkscape:connector-curvature="0"
         style="fill:#000000;fill-opacity:1" />
      <path
         d="m 185.5657,105.07551 1.88294,0.36352 c 21.90163,-6.679508 71.0564,19.62954 60.10562,43.07594 -2.77489,3.68056 -2.30415,10.22371 1.04054,14.33594 l 22.07506,19.92488 c 6.51599,5.38452 12.66037,5.8389 18.50739,4.38486 11.27288,-2.79451 17.54113,7.2702 24.30484,14.67671 l -3.04737,2.74905 c -4.50915,4.18036 -4.08798,11.22339 0.96625,15.85813 5.05423,4.63476 12.7594,5.02096 17.26859,0.88604 l 20.16732,-18.47082 c 4.50916,-4.18039 4.08802,-11.22339 -0.99099,-15.83542 -4.55875,-4.2031 -11.1738,-4.74838 -15.78208,-1.74941 -13.82476,-14.22232 -6.56552,-16.35794 -24.80038,-34.87426 L 273.0979,118.38907 C 248.49571,96.260391 216.5352,96.283103 185.56571,105.07551 z"
         class="aluminium6"
         id="path3946"
         inkscape:connector-curvature="0"
         style="fill:#000000;fill-opacity:1" />
      <path
         d="m 332.06381,185.27493 c -13.82477,-14.22232 -6.56552,-16.35794 -24.80038,-34.87427 L 273.0979,118.38907 C 259.00058,105.71165 242.47522,100.30444 225.13232,99.622856 l 101.90204,94.353614 7.37162,-6.20242 -2.34217,-2.49912 z"
         class="specularity"
         id="path3948"
         inkscape:connector-curvature="0"
         style="fill:#000000;fill-opacity:1" />
      <path
         d="m 249.1151,141.42651 c 0.12388,2.27195 -0.44432,4.54389 -1.6104,7.08846 -2.72533,3.68056 -2.25459,10.22371 1.0901,14.33594 l 22.07506,19.92488 c 6.51599,5.38452 12.66037,5.8389 18.50739,4.38486 2.67575,-0.74975 5.10376,-0.61344 7.38314,0 6.93714,1.74937 -47.47006,-46.68834 -47.44529,-45.96132 l 0,0.22718 z"
         class="low-specularity"
         id="path3950"
         inkscape:connector-curvature="0"
         style="fill:#000000;fill-opacity:1" />
      <path
         d="m 187.12656,219.2404 c -3.44381,-3.15799 -11.09948,-3.08983 -14.61762,0 L 70.854659,308.70935 c -9.266068,8.15625 -2.031593,15.08563 1.932495,18.7435 l 18.234848,16.72144 c 3.988869,3.6351 14.518498,8.54251 22.000738,1.2723 l 95.93112,-92.71783 c 3.34469,-3.22612 3.36947,-10.15556 0,-13.33627 0,0 0.0248,-0.0454 0,-0.0454 L 187.12655,219.2404 z"
         id="path3952"
         inkscape:connector-curvature="0"
         style="fill:#000000;fill-opacity:1" />
      <path
         d="m 72.762398,327.43011 18.234825,16.74418 c 3.988869,3.6351 14.196427,8.83786 21.678647,1.61306 l 96.30277,-93.08126 c 3.34469,-3.24889 3.4438,-10.22373 0,-13.35901 L 187.10178,219.26312 72.762398,327.43011 z"
         class="low-shade"
         id="path3954"
         inkscape:connector-curvature="0"
         style="fill:#000000;fill-opacity:1" />
      <path
         d="m 174.16891,227.07858 -96.327525,86.42453 c -4.013657,3.54425 -2.650993,8.51978 0.247749,11.1098 l 10.232338,9.0196 104.974198,-99.05652 -9.71202,-8.36072 c -2.08115,-1.81758 -6.93718,-1.29501 -9.41474,0.86331 z"
         class="specularity"
         id="path3956"
         inkscape:connector-curvature="0"
         style="fill:#000000;fill-opacity:1" />
      <use
         transform="matrix(2.47756,0,0,2.27194,-88.94793,-126.66233)"
         x="55"
         y="90"
         clip-path="url(#clipoutline2-8)"
         xlink:href="#outline2-2"
         class="stroke-highlight"
         id="use3958"
         style="fill:#000000;fill-opacity:1"
         width="640"
         height="480" />
      <path
         d="m 345.73993,189.72792 c 3.74112,3.27159 4.45962,7.81548 -0.6937,12.17758 l -9.58816,8.24715 c -5.15332,4.43028 -18.63126,-7.38379 -13.50269,-11.79135 l 9.61295,-8.24716 c 5.12854,-4.43027 10.43051,-3.65778 14.1716,-0.38622 z"
         id="path3960"
         inkscape:connector-curvature="0"
         style="fill:#000000;fill-opacity:1" />
    </g>
  </g>
</svg>
