<?xml version="1.0" encoding="UTF-8" standalone="no"?>
<!-- Created with Inkscape (http://www.inkscape.org/) -->

<svg
   xmlns:dc="http://purl.org/dc/elements/1.1/"
   xmlns:cc="http://creativecommons.org/ns#"
   xmlns:rdf="http://www.w3.org/1999/02/22-rdf-syntax-ns#"
   xmlns:svg="http://www.w3.org/2000/svg"
   xmlns="http://www.w3.org/2000/svg"
   xmlns:sodipodi="http://sodipodi.sourceforge.net/DTD/sodipodi-0.dtd"
   xmlns:inkscape="http://www.inkscape.org/namespaces/inkscape"
   width="768"
   height="384"
   id="svg2"
   version="1.1"
   inkscape:version="0.48.3.1 r9886"
   sodipodi:docname="Apparatus.svg"
   inkscape:export-filename="/home/ritwik/Documents/School/10th/7-Chemistry/Lab/Apparatus.png"
   inkscape:export-xdpi="90"
   inkscape:export-ydpi="90">
  <defs
     id="defs4">
    <linearGradient
       id="linearGradient4426">
      <stop
         style="stop-color:#ffffff;stop-opacity:1;"
         offset="0"
         id="stop4428" />
      <stop
         style="stop-color:#000000;stop-opacity:0;"
         offset="1"
         id="stop4430" />
    </linearGradient>
  </defs>
  <sodipodi:namedview
     id="base"
     pagecolor="#ffffff"
     bordercolor="#666666"
     borderopacity="1.0"
     inkscape:pageopacity="0.0"
     inkscape:pageshadow="2"
     inkscape:zoom="16.460937"
     inkscape:cx="573.84909"
     inkscape:cy="353.74477"
     inkscape:document-units="px"
     inkscape:current-layer="layer1"
     showgrid="false"
     inkscape:window-width="2560"
     inkscape:window-height="1551"
     inkscape:window-x="0"
     inkscape:window-y="22"
     inkscape:window-maximized="1" />
  <metadata
     id="metadata7">
    <rdf:RDF>
      <cc:Work
         rdf:about="">
        <dc:format>image/svg+xml</dc:format>
        <dc:type
           rdf:resource="http://purl.org/dc/dcmitype/StillImage" />
        <dc:title></dc:title>
      </cc:Work>
    </rdf:RDF>
  </metadata>
  <g
     inkscape:label="Layer 1"
     inkscape:groupmode="layer"
     id="layer1"
     transform="translate(0,-668.36218)">
    <rect
       style="fill:#a9ddff;fill-opacity:1;stroke:none"
       id="rect4424-36"
       width="42.707169"
       height="143.12671"
       x="162.567"
       y="746.5473" />
    <g
       id="g3842"
       transform="translate(19.396845,-23.419596)">
      <rect
         y="768.00421"
         x="140.91628"
         height="192.93913"
         width="47.477169"
         id="rect3004"
         style="fill:none;stroke:#000000;stroke-width:5;stroke-miterlimit:4;stroke-opacity:1;stroke-dasharray:none" />
      <path
         transform="matrix(1.0102579,0,0,1.0102579,20.444511,687.81573)"
         d="m 166.29637,270.86292 c 0,13.04072 -10.5716,23.61231 -23.61232,23.61231 -13.04072,0 -23.61231,-10.57159 -23.61231,-23.61231 0,-13.04073 10.57159,-23.61232 23.61231,-23.61232 13.04072,0 23.61232,10.57159 23.61232,23.61232 z"
         sodipodi:ry="23.612316"
         sodipodi:rx="23.612316"
         sodipodi:cy="270.86292"
         sodipodi:cx="142.68405"
         id="path3780"
         style="fill:#ffffff;fill-opacity:1;stroke:#000000;stroke-width:5;stroke-miterlimit:4;stroke-opacity:1;stroke-dasharray:none"
         sodipodi:type="arc" />
      <rect
         y="929.43701"
         x="143.31911"
         height="34.237503"
         width="42.470058"
         id="rect3774"
         style="fill:#ffffff;fill-opacity:1;stroke:none" />
    </g>
    <path
       style="fill:none;stroke:#a57600;stroke-width:7.5;stroke-linecap:butt;stroke-linejoin:miter;stroke-miterlimit:4;stroke-opacity:1;stroke-dasharray:none"
       d="m 222.25398,754.29972 c 0,0 -31.42857,-63.21429 -38.57142,91.78572"
       id="path3805"
       inkscape:connector-curvature="0"
       sodipodi:nodetypes="cc" />
    <path
       sodipodi:type="spiral"
       style="fill:none;stroke:#a9a9a9;stroke-width:2.82848215;stroke-linecap:butt;stroke-linejoin:bevel;stroke-miterlimit:4;stroke-opacity:1;stroke-dasharray:none"
       id="path3807"
       sodipodi:cx="80.35714"
       sodipodi:cy="202.92857"
       sodipodi:expansion="1"
       sodipodi:revolution="3"
       sodipodi:radius="11.094446"
       sodipodi:argument="-17.857834"
       sodipodi:t0="0"
       d="m 80.35714,202.92857 c 0.304411,0.46557 -0.477395,0.64004 -0.77381,0.50596 -0.803267,-0.36337 -0.712847,-1.47074 -0.238095,-2.05358 0.84922,-1.04255 2.447713,-0.85094 3.333333,0.0298 1.299684,1.29247 0.996196,3.43904 -0.297619,4.61309 -1.724451,1.56482 -4.435624,1.14468 -5.892857,-0.56547 -1.833779,-2.15205 -1.294859,-5.43474 0.833333,-7.17262 2.577526,-2.10481 6.435279,-1.44604 8.452381,1.10119 2.377086,3.00182 1.597848,7.43671 -1.369047,9.73214 -3.425398,2.65016 -8.438755,1.75007 -11.011905,-1.6369 -2.923777,-3.8485 -1.90259,-9.44122 1.904762,-12.29167 4.271273,-3.19778 10.443972,-2.05532 13.571428,2.17262 3.47207,4.69381 2.208205,11.44696 -2.440476,14.85119"
       transform="matrix(-1.4519748,-1.0082894,1.0082894,-1.4519748,97.460318,1239.9372)" />
    <path
       style="fill:#000000;fill-opacity:1;stroke:#000000;stroke-width:4.14273882;stroke-miterlimit:4;stroke-opacity:1"
       d="m 158.82713,723.82071 50.83315,0 -9.75439,36.13911 -32.95011,0 z"
       id="rect3930"
       inkscape:connector-curvature="0"
       sodipodi:nodetypes="ccccc" />
    <text
       xml:space="preserve"
       style="font-size:40px;font-style:normal;font-weight:normal;line-height:125%;letter-spacing:0px;word-spacing:0px;fill:#000000;fill-opacity:1;stroke:none;font-family:Sans"
       x="138.42088"
       y="1008.097"
       id="text3933"
       sodipodi:linespacing="125%"><tspan
         sodipodi:role="line"
         id="tspan3935"
         x="138.42088"
         y="1008.097"
         style="font-style:normal;font-variant:normal;font-weight:normal;font-stretch:normal;font-family:Linux Libertine;-inkscape-font-specification:Linux Libertine">Fig 3.1</tspan></text>
    <text
       xml:space="preserve"
       style="font-size:40px;font-style:normal;font-weight:normal;line-height:125%;letter-spacing:0px;word-spacing:0px;fill:#000000;fill-opacity:1;stroke:none;font-family:Sans"
       x="510.87802"
       y="1008.097"
       id="text3933-8"
       sodipodi:linespacing="125%"><tspan
         sodipodi:role="line"
         id="tspan3935-7"
         x="510.87802"
         y="1008.097"
         style="font-style:normal;font-variant:normal;font-weight:normal;font-stretch:normal;font-family:Linux Libertine;-inkscape-font-specification:Linux Libertine">Fig 3.2</tspan></text>
    <rect
       style="fill:#a9ddff;fill-opacity:1;stroke:none"
       id="rect4517-4"
       width="92.841454"
       height="76.372162"
       x="517.53247"
       y="888.12" />
    <rect
       style="fill:none;stroke:#000000;stroke-width:5;stroke-miterlimit:4;stroke-opacity:1;stroke-dasharray:none"
       id="rect3989"
       width="90.881821"
       height="245.91551"
       x="518.28192"
       y="691.47345" />
    <rect
       style="fill:#ffffff;fill-opacity:1;stroke:none"
       id="rect3991"
       width="85.913307"
       height="35.224457"
       x="520.75543"
       y="682.50171" />
    <rect
       style="fill:#ffffff;fill-opacity:1;stroke:none"
       id="rect3991-1"
       width="85.913307"
       height="52.234425"
       x="520.75562"
       y="905.01019" />
    <path
       style="fill:#a9ddff;stroke:#000000;stroke-width:5;stroke-miterlimit:4;stroke-opacity:1;fill-opacity:1"
       d="m 519.43615,937.44968 88.56217,0 19.00039,29.64594 -126.56234,0 z"
       id="rect3989-2"
       inkscape:connector-curvature="0"
       sodipodi:nodetypes="ccccc" />
    <rect
       style="fill:#a9ddff;fill-opacity:1;stroke:none"
       id="rect4517"
       width="85.968391"
       height="271.7438"
       x="520.71448"
       y="692.84021" />
    <rect
       style="fill:none;stroke:#000000;stroke-width:5;stroke-miterlimit:4;stroke-opacity:1;stroke-dasharray:none"
       id="rect3004-0"
       width="47.477169"
       height="192.93913"
       x="532.65076"
       y="-924.54761"
       transform="scale(1,-1)" />
    <path
       sodipodi:type="arc"
       style="fill:#ffffff;fill-opacity:1;stroke:#000000;stroke-width:5;stroke-miterlimit:4;stroke-opacity:1;stroke-dasharray:none"
       id="path3780-6"
       sodipodi:cx="142.68405"
       sodipodi:cy="270.86292"
       sodipodi:rx="23.612316"
       sodipodi:ry="23.612316"
       d="m 166.29637,270.86292 a 23.612316,23.612316 0 1 1 -47.22463,0 23.612316,23.612316 0 1 1 47.22463,0 z"
       transform="matrix(1.0102579,0,0,-1.0102579,412.17902,1004.7361)" />
    <rect
       style="fill:#ffffff;fill-opacity:1;stroke:none"
       id="rect3774-4"
       width="42.470058"
       height="188.88152"
       x="535.05359"
       y="-917.75873"
       transform="scale(1,-1)" />
    <rect
       style="fill:#ffffff;fill-opacity:1;stroke:none"
       id="rect3774-1-2"
       width="42.470058"
       height="34.237503"
       x="535.10223"
       y="-936.52106"
       transform="scale(1,-1)" />
    <g
       id="g4654"
       transform="matrix(0.99476987,0,0,0.99487179,200.14928,2.836262)">
      <path
         inkscape:connector-curvature="0"
         d="m 379.86548,733.19012 c 0,-12.56494 -9.75072,-22.75083 -21.77884,-22.75083 -12.02811,0 -21.77883,10.18589 -21.77883,22.75083 0,12.56494 9.75072,22.75082 21.77883,22.75082 12.02812,0 21.77884,-10.18588 21.77884,-22.75082 z m -43.19319,190.48117 42.70717,0 0,-188.3246 -42.70717,0 z"
         style="fill:#91ff79;fill-opacity:0.49803922;stroke:none"
         id="path4452-9" />
      <path
         inkscape:connector-curvature="0"
         d="m 379.86548,733.19017 c 0,-12.56494 -9.75072,-22.75084 -21.77884,-22.75084 -12.02811,0 -21.77883,10.1859 -21.77883,22.75084 0,12.56493 9.75072,22.75082 21.77883,22.75082 12.02812,0 21.77884,-10.18589 21.77884,-22.75082 z m -43.1932,190.48108 42.70716,0 0,-188.3246 -42.70716,0 z"
         style="fill:#a9deff;fill-opacity:0.49803922;stroke:none"
         id="path4452-9-8" />
    </g>
    <path
       style="fill:none;stroke:#a57600;stroke-width:7.5;stroke-linecap:butt;stroke-linejoin:miter;stroke-miterlimit:4;stroke-opacity:1;stroke-dasharray:none"
       d="m 594.59165,914.83248 c 0,0 -31.42857,63.21429 -38.57142,-91.78572"
       id="path3805-0"
       inkscape:connector-curvature="0"
       sodipodi:nodetypes="cc" />
    <path
       sodipodi:type="spiral"
       style="fill:none;stroke:#a9a9a9;stroke-width:2.82848215;stroke-linecap:butt;stroke-linejoin:bevel;stroke-miterlimit:4;stroke-opacity:1;stroke-dasharray:none"
       id="path3807-5"
       sodipodi:cx="80.35714"
       sodipodi:cy="202.92857"
       sodipodi:expansion="1"
       sodipodi:revolution="3"
       sodipodi:radius="11.094446"
       sodipodi:argument="-17.857834"
       sodipodi:t0="0"
       d="m 80.35714,202.92857 c 0.304411,0.46557 -0.477395,0.64004 -0.77381,0.50596 -0.803267,-0.36337 -0.712847,-1.47074 -0.238095,-2.05358 0.84922,-1.04255 2.447713,-0.85094 3.333333,0.0298 1.299684,1.29247 0.996196,3.43904 -0.297619,4.61309 -1.724451,1.56482 -4.435624,1.14468 -5.892857,-0.56547 -1.833779,-2.15205 -1.294859,-5.43474 0.833333,-7.17262 2.577526,-2.10481 6.435279,-1.44604 8.452381,1.10119 2.377086,3.00182 1.597848,7.43671 -1.369047,9.73214 -3.425398,2.65016 -8.438755,1.75007 -11.011905,-1.6369 -2.923777,-3.8485 -1.90259,-9.44122 1.904762,-12.29167 4.271273,-3.19778 10.443972,-2.05532 13.571428,2.17262 3.47207,4.69381 2.208205,11.44696 -2.440476,14.85119"
       transform="matrix(-1.4519748,1.0082894,1.0082894,1.4519748,469.79799,429.195)" />
    <path
       style="fill:#000000;fill-opacity:1;stroke:#000000;stroke-width:4.14273882;stroke-miterlimit:4;stroke-opacity:1"
       d="m 531.1648,945.31149 50.83315,0 -9.75439,-36.13911 -32.95011,0 z"
       id="rect3930-0"
       inkscape:connector-curvature="0"
       sodipodi:nodetypes="ccccc" />
    <rect
       style="fill:#91ff79;fill-opacity:1;stroke:none"
       id="rect4424"
       width="42.58567"
       height="45.44091"
       x="162.68819"
       y="889.06653" />
    <path
       sodipodi:type="arc"
       style="fill:#91ff79;fill-opacity:1;stroke:none"
       id="path4452"
       sodipodi:cx="183.70764"
       sodipodi:cy="266.20599"
       sodipodi:rx="21.687708"
       sodipodi:ry="21.687708"
       d="m 205.39535,266.20599 a 21.687708,21.687708 0 1 1 -43.37542,0 21.687708,21.687708 0 1 1 43.37542,0 z"
       transform="matrix(1.0042017,0,0,1.0490196,-0.49850638,657.40873)" />
  </g>
</svg>
